<?xml version="1.0" standalone="no"?>
<!DOCTYPE svg PUBLIC "-//W3C//DTD SVG 20010904//EN"
 "http://www.w3.org/TR/2001/REC-SVG-20010904/DTD/svg10.dtd">
<svg version="1.0" xmlns="http://www.w3.org/2000/svg"
 width="800.000000pt" height="800.000000pt" viewBox="0 0 800.000000 800.000000"
 preserveAspectRatio="xMidYMid meet">
<metadata>
Created by potrace 1.16, written by Peter Selinger 2001-2019
</metadata>
<g transform="translate(0.000000,800.000000) scale(0.100000,-0.100000)"
fill="#000000" stroke="none">
<path d="M790 4575 l0 -1745 485 0 485 0 2 844 3 845 680 -842 681 -842 387
-3 387 -2 0 1745 0 1745 -480 0 -480 0 -2 -879 -3 -880 -694 880 -694 879
-379 0 -378 0 0 -1745z"/>
<path d="M4290 4575 l0 -1746 993 4 c1079 3 1037 1 1269 61 331 87 569 278
661 533 39 107 51 206 44 366 -7 151 -21 229 -64 336 -78 198 -255 369 -470
453 -45 18 -83 36 -83 40 0 4 9 9 19 13 10 3 45 23 78 44 208 136 347 376 372
649 27 295 -75 581 -278 775 -125 119 -253 184 -408 207 -41 6 -479 10 -1100
10 l-1033 0 0 -1745z m1749 890 c60 -30 86 -62 106 -128 18 -60 19 -127 4
-199 -9 -42 -21 -62 -55 -95 -72 -70 -95 -73 -491 -73 l-343 0 0 260 0 260
365 0 366 0 48 -25z m106 -1278 c89 -50 141 -165 133 -291 -7 -111 -50 -176
-148 -227 -45 -24 -46 -24 -457 -27 l-413 -3 0 285 0 286 423 0 c418 0 422 -1
462 -23z"/>
<path d="M2700 2364 l0 -166 -40 35 c-158 135 -401 17 -427 -207 l-6 -51 -12
50 c-14 59 -44 120 -77 156 -103 111 -298 141 -443 70 -118 -58 -179 -160
-179 -297 0 -72 4 -89 32 -147 56 -114 152 -175 291 -184 195 -14 337 87 377
267 11 51 12 52 13 18 1 -55 36 -139 77 -187 99 -115 281 -134 388 -40 l45 40
14 -34 c24 -56 107 -81 206 -61 l31 7 0 96 c0 90 -1 97 -22 106 l-23 10 -3
343 -2 342 -120 0 -120 0 0 -166z m-772 -290 c33 -23 52 -67 52 -119 0 -84
-43 -135 -116 -135 -29 0 -48 7 -67 24 -22 20 -47 79 -47 111 0 32 25 91 47
111 31 29 96 33 131 8z m711 2 c46 -24 61 -57 61 -135 0 -65 -2 -71 -31 -95
-24 -20 -41 -26 -81 -26 -44 0 -54 4 -84 34 -31 31 -34 40 -34 90 0 92 40 146
108 146 18 0 46 -7 61 -14z"/>
<path d="M6610 2080 l0 -450 115 0 115 0 0 184 c0 184 0 184 26 216 36 43 77
62 106 51 50 -19 53 -30 56 -248 l3 -203 115 0 115 0 -3 263 c-3 257 -3 263
-28 305 -38 67 -79 87 -175 87 -88 0 -126 -14 -182 -68 l-33 -31 0 172 0 172
-115 0 -115 0 0 -450z"/>
<path d="M3750 2065 l0 -435 245 0 c315 0 383 14 453 94 74 85 66 224 -18 300
-22 20 -43 36 -48 36 -4 0 -13 4 -21 9 -10 6 -2 19 32 54 86 86 91 218 11 307
-62 69 -69 70 -378 70 l-276 0 0 -435z m454 219 c9 -8 16 -31 16 -49 0 -56
-18 -65 -131 -65 l-99 0 0 65 0 65 99 0 c77 0 103 -4 115 -16z m30 -326 c21
-29 20 -87 -1 -110 -14 -15 -32 -18 -130 -18 l-113 0 0 75 0 75 114 0 c107 0
116 -1 130 -22z"/>
<path d="M1172 2271 c-29 -10 -69 -33 -88 -52 l-34 -33 0 47 0 47 -105 0 -105
0 0 -325 0 -325 115 0 115 0 0 181 c0 165 2 185 20 214 47 76 139 80 160 6 5
-20 10 -118 10 -218 l0 -183 116 0 115 0 -3 263 -3 262 -27 47 c-50 84 -163
111 -286 69z"/>
<path d="M3249 2276 c-133 -36 -215 -128 -239 -269 -27 -152 45 -291 181 -351
158 -72 363 -30 456 93 19 24 32 45 30 47 -1 2 -45 15 -97 28 l-94 26 -19 -21
c-53 -56 -171 -50 -202 12 -8 15 -15 30 -15 34 0 3 104 5 231 5 l232 0 -5 83
c-6 109 -34 172 -105 237 -87 80 -228 110 -354 76z m177 -190 c58 -58 50 -66
-71 -66 -112 0 -117 3 -91 49 17 31 53 50 95 51 25 0 42 -9 67 -34z"/>
<path d="M4749 2276 c-133 -36 -215 -128 -239 -269 -27 -152 45 -291 181 -351
158 -72 363 -30 456 93 19 24 32 45 30 47 -1 2 -45 15 -97 28 l-94 26 -19 -21
c-53 -56 -171 -50 -202 12 -8 15 -15 30 -15 34 0 3 104 5 231 5 l232 0 -5 83
c-6 109 -34 172 -105 237 -87 80 -228 110 -354 76z m177 -190 c58 -58 50 -66
-71 -66 -112 0 -117 3 -91 49 17 31 53 50 95 51 25 0 42 -9 67 -34z"/>
<path d="M5572 2271 c-29 -10 -69 -33 -88 -52 l-34 -33 0 47 0 47 -105 0 -105
0 0 -325 0 -325 115 0 115 0 0 181 c0 165 2 185 20 214 47 76 139 80 160 6 5
-20 10 -118 10 -218 l0 -183 116 0 115 0 -3 263 -3 262 -27 47 c-50 84 -163
111 -286 69z"/>
<path d="M6159 2277 c-103 -29 -172 -89 -218 -187 -20 -45 -25 -70 -25 -136 0
-72 4 -89 32 -147 37 -75 83 -119 162 -156 48 -23 68 -26 160 -26 87 0 113 4
153 22 58 27 102 63 139 113 l27 36 -114 33 -114 33 -27 -21 c-52 -41 -140
-19 -165 41 -30 71 -9 167 42 193 43 23 96 19 123 -8 l23 -23 116 35 116 35
-27 37 c-67 90 -147 130 -272 135 -51 2 -103 -1 -131 -9z"/>
</g>
</svg>
